#!OML:ASF I:\Actors\actors\Patient Classification 2\Patient 1\Session 1\actor1.ASF
:FULLY-SPECIFIED
:DEGREES
499
root -0.662232 18.1799 6.21105 0.211504 4.25509 -4.70542
lowerback 10.596 3.6392 1.67901
upperback -0.840125 4.97312 -1.34065
thorax -6.5577 2.35326 -3.14191
lowerneck -16.8997 -8.74634 -3.36043
upperneck 1.1715 -11.8011 12.425
head 4.03654 -5.20286 3.32626
rclavicle -2.14687e-014 3.97569e-015
rhumerus 18.4385 -23.3302 -21.4289
rradius 79.7699
rwrist 16.1535
rhand -32.7222 -35.2823
rfingers 7.12502
rthumb -5.94597 -65.1789
lclavicle -2.14687e-014 3.97569e-015
lhumerus -27.2551 -27.3762 70.9302
lradius 84.5056
lwrist 28.038
lhand -5.96321 -13.5776
lfingers 7.12502
lthumb 19.8677 15.4269
rfemur 13.0553 -4.71973 18.9195
rtibia -3.82828
rfoot -14.8482 -13.2044
rtoes 1.14131
lfemur 20.4125 -0.694919 -12.4887
ltibia -25.5037
lfoot 6.29559 12.0096
ltoes -15.9453
500
root -0.687437 18.1966 6.22903 -0.531469 4.17091 -4.52912
lowerback 11.4179 3.98557 2.45008
upperback -1.04462 5.51101 -1.92687
thorax -7.07842 2.55949 -4.35339
lowerneck -16.2316 -9.33675 -3.73585
upperneck 0.96657 -12.5737 13.2048
head 4.01385 -5.57633 3.56055
rclavicle 4.68138e-014 1.19271e-014
rhumerus 24.1103 -24.9787 -20.7369
rradius 72.306
rwrist 20.5302
rhand -33.8121 -37.7148
rfingers 7.12502
rthumb -6.9982 -67.5791
lclavicle 4.68138e-014 1.19271e-014
lhumerus -26.6717 -27.7543 70.373
lradius 84.8728
lwrist 28.0395
lhand -5.91723 -13.7929
lfingers 7.12502
lthumb 19.9119 15.207
rfemur 11.9689 -4.6384 18.7595
rtibia -1.90833e-014
rfoot -16.1444 -11.97
rtoes 1.68964
lfemur 21.0967 -1.57132 -12.6985
ltibia -24.9213
lfoot 6.00588 12.6389
ltoes -15.159
501
root -0.711565 18.2059 6.24815 -1.27253 3.78997 -4.3226
lowerback 12.3435 4.36993 3.21472
upperback -1.32186 6.11791 -2.44519
thorax -7.71353 2.7854 -5.53781
lowerneck -15.7153 -9.92786 -4.3048
upperneck 1.01097 -13.3436 13.949
head 4.10935 -5.93711 3.80186
rclavicle 2.81777e-014 -3.33958e-014
rhumerus 29.8735 -26.2002 -20.4857
rradius 64.6044
rwrist 23.4775
rhand -34.1086 -39.3079
rfingers 7.12502
rthumb -7.28444 -69.1625
lclavicle 2.81777e-014 -3.33958e-014
lhumerus -26.4708 -27.8754 70.0786
lradius 85.3306
lwrist 28.3497
lhand -5.91739 -13.8775
lfingers 7.12502
lthumb 19.9118 15.1224
rfemur 12.8026 -4.2462 18.538
rtibia -3.18055e-015
rfoot -16.0423 -11.9582
rtoes 2.1976
lfemur 21.9084 -2.32201 -12.9783
ltibia -24.4253
lfoot 5.45808 13.3473
ltoes -14.1054
502
root -0.737961 18.2107 6.26596 -1.83219 3.51859 -4.11194
lowerback 13.1023 4.64531 3.94681
upperback -1.61009 6.58835 -2.90002
thorax -8.27119 2.93975 -6.61952
lowerneck -15.4255 -10.479 -4.84505
upperneck 1.21308 -14.0743 14.5158
head 4.27718 -6.27178 3.97523
rclavicle -1.68967e-014 0
rhumerus 35.7549 -27.3979 -21.6269
rradius 57.0234
rwrist 25.779
rhand -32.8725 -40.3028
rfingers 7.12502
rthumb -6.09108 -70.1953
lclavicle -1.68967e-014 0
lhumerus -26.4548 -27.6478 69.9028
lradius 85.8225
lwrist 28.7916
lhand -5.94686 -13.972
lfingers 7.12502
lthumb 19.8834 15.0309
rfemur 13.4482 -3.97006 18.3532
rtibia -1.27222e-014
rfoot -16.0128 -11.9121
rtoes 2.73088
lfemur 22.5191 -3.05182 -13.2422
ltibia -24.0121
lfoot 4.90636 13.9713
ltoes -13.8071
503
root -0.770599 18.2124 6.28753 -2.15501 3.47497 -3.90849
lowerback 13.3871 4.78364 4.52561
upperback -1.84864 6.84915 -3.29911
thorax -8.54429 3.00997 -7.47403
lowerneck -15.1957 -10.9555 -5.07671
upperneck 1.38079 -14.7365 14.8215
head 4.39852 -6.58293 4.02799
rclavicle -2.60408e-014 -6.36111e-015
rhumerus 40.0562 -27.3957 -21.7754
rradius 50.996
rwrist 24.3607
rhand -31.7684 -41.7077
rfingers 7.12502
rthumb -5.02508 -71.6281
lclavicle -2.60408e-014 -6.36111e-015
lhumerus -26.5824 -27.01 69.7649
lradius 86.3044
lwrist 29.2
lhand -6.03668 -14.0479
lfingers 7.12502
lthumb 19.7971 14.9639
rfemur 13.8994 -3.93463 18.2164
rtibia 1.59028e-015
rfoot -16.1238 -11.7956
rtoes 3.51193
lfemur 22.8611 -3.65858 -13.4168
ltibia -23.6883
lfoot 4.47919 14.3432
ltoes -14.0354
504
root -0.811609 18.2109 6.31576 -2.32136 3.44242 -3.72276
lowerback 13.2985 4.9586 4.89848
upperback -2.06313 7.1234 -3.58205
thorax -8.6067 3.11053 -8.04522
lowerneck -14.8346 -11.453 -5.49562
upperneck 1.395 -15.3943 15.27
head 4.48302 -6.89907 4.15812
rclavicle -9.83239e-014 1.27222e-014
rhumerus 43.23 -26.8129 -20.3877
rradius 45.7334
rwrist 22.2205
rhand -30.8927 -38.506
rfingers 7.12502
rthumb -4.17949 -68.4447
lclavicle -9.83239e-014 1.27222e-014
lhumerus -26.8779 -26.1847 69.9178
lradius 86.7264
lwrist 29.4503
lhand -6.10899 -13.9886
lfingers 7.12502
lthumb 19.7276 15.0304
rfemur 14.2226 -3.92644 18.1464
rtibia 3.49861e-014
rfoot -16.3201 -11.6601
rtoes 4.11116
lfemur 23.0945 -4.11221 -13.5229
ltibia -23.4616
lfoot 4.12269 14.5959
ltoes -14.0242
505
root -0.857226 18.2019 6.34651 -2.46005 3.45954 -3.59769
lowerback 13.1472 5.12594 5.1043
upperback -2.26974 7.36704 -3.74243
thorax -8.66065 3.20746 -8.37516
lowerneck -14.4491 -11.8971 -6.04099
upperneck 1.28734 -15.962 15.8748
head 4.54854 -7.17117 4.36597
rclavicle -1.90088e-014 1.59028e-014
rhumerus 43.5631 -25.4608 -16.9753
rradius 43.4301
rwrist 20.2537
rhand -34.6939 -33.1048
rfingers 7.12502
rthumb -7.84937 -62.9391
lclavicle -1.90088e-014 1.59028e-014
lhumerus -27.4477 -25.3155 70.3089
lradius 87.2351
lwrist 29.5584
lhand -6.17776 -13.9188
lfingers 7.12502
lthumb 19.6615 15.1069
rfemur 14.5386 -3.97859 18.1604
rtibia -5.56597e-014
rfoot -16.6058 -11.4768
rtoes 4.59317
lfemur 23.3256 -4.4645 -13.5521
ltibia -23.3061
lfoot 3.81736 14.7156
ltoes -14.1244
506
root -0.899165 18.1858 6.37563 -2.64159 3.68709 -3.54346
lowerback 12.9882 5.16007 5.23917
upperback -2.40767 7.42608 -3.81437
thorax -8.68498 3.22335 -8.5307
lowerneck -14.1497 -12.2083 -6.42346
upperneck 1.10363 -16.3656 16.4755
head 4.58007 -7.36223 4.56604
rclavicle -9.37394e-014 -1.59028e-015
rhumerus 44.7326 -23.9019 -14.6805
rradius 41.4098
rwrist 20.7049
rhand -29.893 -33.4907
rfingers 7.12502
rthumb -3.2141 -63.4462
lclavicle -9.37394e-014 -1.59028e-015
lhumerus -28.2932 -24.2442 70.8119
lradius 87.9593
lwrist 29.6364
lhand -6.16611 -13.8105
lfingers 7.12502
lthumb 19.6727 15.2141
rfemur 14.9172 -4.23793 18.2132
rtibia 5.08889e-014
rfoot -16.9443 -11.2562
rtoes 5.04685
lfemur 23.5736 -4.9158 -13.5493
ltibia -23.2012
lfoot 3.49816 14.8073
ltoes -14.2566
507
root -0.937139 18.168 6.40348 -2.80127 4.13487 -3.47263
lowerback 12.6892 5.0966 5.25094
upperback -2.47164 7.32905 -3.85978
thorax -8.5931 3.17985 -8.53728
lowerneck -13.8793 -12.4008 -6.55065
upperneck 0.868096 -16.6317 16.9768
head 4.55781 -7.49147 4.71684
rclavicle 9.29318e-014 -3.18055e-014
rhumerus 44.8421 -22.2964 -12.9393
rradius 41.9451
rwrist 19.8486
rhand -29.4653 -32.6191
rfingers 7.12502
rthumb -2.80106 -62.5805
lclavicle 9.29318e-014 -3.18055e-014
lhumerus -29.2778 -22.997 71.4227
lradius 88.8148
lwrist 29.7767
lhand -5.95783 -13.6751
lfingers 7.12502
lthumb 19.8729 15.3288
rfemur 15.2834 -4.70782 18.2057
rtibia -5.40694e-014
rfoot -17.2662 -11.0293
rtoes 5.42259
lfemur 23.7457 -5.40632 -13.6009
ltibia -23.1493
lfoot 3.27949 14.8468
ltoes -14.3053
508
root -0.977303 18.1479 6.43053 -2.88022 4.86283 -3.37973
lowerback 12.1819 4.94741 5.04951
upperback -2.47387 7.07854 -3.8492
thorax -8.37234 3.08362 -8.30689
lowerneck -13.757 -12.5051 -6.46568
upperneck 0.794134 -16.8046 17.2208
head 4.55442 -7.57199 4.76187
rclavicle 6.26172e-015 1.59028e-015
rhumerus 44.8361 -20.9106 -12.1378
rradius 43.6859
rwrist 18.2016
rhand -29.9602 -32.4314
rfingers 7.12502
rthumb -3.27904 -62.386
lclavicle 6.26172e-015 1.59028e-015
lhumerus -30.2909 -21.6658 72.2015
lradius 89.6202
lwrist 29.9249
lhand -5.66165 -13.7049
lfingers 7.12502
lthumb 20.1576 15.2693
rfemur 15.5981 -5.45688 18.1578
rtibia 6.36111e-015
rfoot -17.689 -10.7007
rtoes 6.11338
lfemur 23.7361 -5.86311 -13.6462
ltibia -23.1187
lfoot 3.05621 14.7528
ltoes -14.502
